# xmcd
#
# Track frame offsets:
#	150
#	11079
#	23534
#	35287
#	47507
#	58142
#	69733
#	80479
#	93054
#	104553
#	116945
#	127839
#	137925
#	148685
#	162291
#	175014
#	186657
#	197177
#	207491
#	218993
#	229839
#	241156
#	251329
#	263961
#	276193
#	290333
#	303436
#	315973
#	329518
#	339559
#
# Disc length: 4709 seconds
#
# Revision: 0
# Processed by: cddbd v1.5.2PL0 Copyright (c) Steve Scherf et al.
# Submitted via: dBpowerAMP V4.0
#
DISCID=c112631e
DTITLE=Dean Martin - Dino - The Essential Dean Martin
DYEAR=1900
DGENRE=Big Band
TTITLE0=Ain't That a Kick In the Head
TTITLE1=Everybody Loves Somebody
TTITLE2=Gentle On My Mind
TTITLE3=Houston
TTITLE4=I'd Cry Like a Baby
TTITLE5=I'll Always Love You (Day After Day)
TTITLE6=I Will
TTITLE7=If
TTITLE8=In the Chapel In the Moonlight
TTITLE9=In the Misty Moonlight
TTITLE10=Innamorata (Sweetheart)
TTITLE11=Just In Time
TTITLE12=Kiss
TTITLE13=Let Me Go Lover
TTITLE14=Little Ole Wine Drinker Me
TTITLE15=Love Me, Love Me
TTITLE16=Mambo Italiano
TTITLE17=Memories Are Made of This
TTITLE18=Powder On Your Face With Sunshine (Smile! Smile! Smile!)
TTITLE19=Return to Me (Ritorna-Me)
TTITLE20=Send Me the Pillow You Dream On
TTITLE21=Somewhere There's a Someone
TTITLE22=Standing On the Corner
TTITLE23=Sway
TTITLE24=That's Amore
TTITLE25=The Door Is Still Open (To My Heart)
TTITLE26=Under the Bridges of Paris
TTITLE27=Volare (Nel Blu, Di Pinto Di Blu)
TTITLE28=You're Nobody 'Til Somebody Loves You
TTITLE29=You Belong to Me
EXTD=
EXTT0=
EXTT1=
EXTT2=
EXTT3=
EXTT4=
EXTT5=
EXTT6=
EXTT7=
EXTT8=
EXTT9=
EXTT10=
EXTT11=
EXTT12=
EXTT13=
EXTT14=
EXTT15=
EXTT16=
EXTT17=
EXTT18=
EXTT19=
EXTT20=
EXTT21=
EXTT22=
EXTT23=
EXTT24=
EXTT25=
EXTT26=
EXTT27=
EXTT28=
EXTT29=
PLAYORDER=
